<?xml version="1.0" standalone="no"?><!DOCTYPE svg PUBLIC "-//W3C//DTD SVG 1.1//EN" "http://www.w3.org/Graphics/SVG/1.1/DTD/svg11.dtd"><svg t="1781492132275" class="icon" viewBox="0 0 1024 1024" version="1.1" xmlns="http://www.w3.org/2000/svg" p-id="32680" width="32" height="32" xmlns:xlink="http://www.w3.org/1999/xlink"><path d="M778.666667 597.333333a21.333333 21.333333 0 0 1 16.213333 7.466667l2.176 3.029333 74.666667 126.933334a21.333333 21.333333 0 0 1 1.621333 18.176l-1.621333 3.498666-74.666667 126.933334a21.333333 21.333333 0 0 1-14.677333 10.154666l-3.712 0.341334h-149.333334a21.333333 21.333333 0 0 1-16.213333-7.466667l-2.133333-3.029333-74.709334-126.933334a21.333333 21.333333 0 0 1-1.621333-18.176l1.621333-3.498666 74.666667-126.933334a21.333333 21.333333 0 0 1 14.677333-10.154666L629.333333 597.333333h149.333334zM512 256a298.752 298.752 0 0 1 295.253333 253.653333 21.333333 21.333333 0 0 1-42.154666 6.4 256.128 256.128 0 0 0-242.602667-217.173333L512 298.666667l-9.6 0.170666a256 256 0 0 0-246.186667 246.229334L256 554.666667v295.594666h256l3.84 0.384a21.333333 21.333333 0 0 1 0 41.984l-3.84 0.341334H234.666667l-3.84-0.341334a21.333333 21.333333 0 0 1-17.152-17.194666L213.333333 871.594667V554.666667l0.170667-10.24A298.666667 298.666667 0 0 1 512 256z m254.464 384h-124.970667l-62.122666 105.6 62.122666 105.6h124.970667l62.122667-105.6L766.464 640zM704 704a42.666667 42.666667 0 1 1 0 85.333333 42.666667 42.666667 0 0 1 0-85.333333zM161.962667 248.192l2.901333 2.56 42.666667 45.226667a21.333333 21.333333 0 0 1-28.16 31.829333l-2.901334-2.56-42.666666-45.226667a21.333333 21.333333 0 0 1 28.16-31.829333z m700.074666 0a21.333333 21.333333 0 0 1 28.16 31.829333l-42.666666 45.226667-2.901334 2.56a21.333333 21.333333 0 0 1-28.16-31.829333l42.666667-45.226667zM512 106.666667a21.333333 21.333333 0 0 1 20.992 17.493333L533.333333 128v64a21.333333 21.333333 0 0 1-42.325333 3.84L490.666667 192V128a21.333333 21.333333 0 0 1 21.333333-21.333333z" p-id="32681" fill="#2c2c2c"></path></svg>