<?xml version="1.0" standalone="no"?><!DOCTYPE svg PUBLIC "-//W3C//DTD SVG 1.1//EN" "http://www.w3.org/Graphics/SVG/1.1/DTD/svg11.dtd"><svg t="1781231217981" class="icon" viewBox="0 0 1024 1024" version="1.1" xmlns="http://www.w3.org/2000/svg" p-id="5854" width="32" height="32" xmlns:xlink="http://www.w3.org/1999/xlink"><path d="M594.707692 683.323077c-61.046154 0-126.030769-25.6-177.230769-76.8-7.876923-7.876923-7.876923-19.692308 0-27.569231s19.692308-7.876923 27.569231 0c74.830769 74.830769 183.138462 88.615385 242.215384 29.538462l240.246154-240.246154c27.569231-27.569231 39.384615-66.953846 35.446154-112.246154-5.907692-47.261538-27.569231-92.553846-64.984615-129.969231S815.261538 64.984615 768 61.046154c-45.292308-5.907692-84.676923 7.876923-112.246154 35.446154l-135.876923 135.876923c-7.876923 7.876923-19.692308 7.876923-27.569231 0s-7.876923-19.692308 0-27.569231l135.876923-135.876923c35.446154-35.446154 88.615385-53.169231 145.723077-47.261539 55.138462 5.907692 108.307692 33.476923 151.63077 76.8s70.892308 98.461538 76.8 153.6c5.907692 57.107692-9.846154 108.307692-47.261539 145.723077L716.8 636.061538c-33.476923 31.507692-76.8 47.261538-122.092308 47.261539z" p-id="5855" fill="#ffffff"></path><path d="M273.723077 1004.307692c-61.046154 0-126.030769-25.6-177.230769-76.8C5.907692 836.923077-7.876923 703.015385 66.953846 630.153846l240.246154-240.246154c35.446154-35.446154 88.615385-53.169231 145.723077-47.261538 55.138462 5.907692 110.276923 33.476923 153.6 76.8 7.876923 7.876923 7.876923 19.692308 0 27.569231s-19.692308 7.876923-27.569231 0c-37.415385-37.415385-82.707692-61.046154-129.969231-64.984616-45.292308-5.907692-84.676923 7.876923-112.246153 35.446154L94.523077 655.753846c-59.076923 59.076923-45.292308 167.384615 29.538461 242.215385 74.830769 74.830769 183.138462 88.615385 242.215385 29.538461l135.876923-135.876923c7.876923-7.876923 19.692308-7.876923 27.569231 0s7.876923 19.692308 0 27.569231L393.846154 955.076923c-29.538462 33.476923-72.861538 49.230769-120.123077 49.230769z" p-id="5856" fill="#ffffff"></path></svg>