<?xml version="1.0" standalone="no"?><!DOCTYPE svg PUBLIC "-//W3C//DTD SVG 1.1//EN" "http://www.w3.org/Graphics/SVG/1.1/DTD/svg11.dtd"><svg t="1781492747037" class="icon" viewBox="0 0 1024 1024" version="1.1" xmlns="http://www.w3.org/2000/svg" p-id="7018" width="32" height="32" xmlns:xlink="http://www.w3.org/1999/xlink"><path d="M810.688 810.688V960h-49.792v-149.312H611.584v-49.792h149.312V611.584h49.792v149.312H960v49.792h-149.312z m99.584-547.584a149.376 149.376 0 0 0-149.376-149.312H263.104a149.312 149.312 0 0 0-149.312 149.312v497.728a149.376 149.376 0 0 0 149.312 149.376h298.688V960H263.104A199.104 199.104 0 0 1 64 760.896V263.104A199.104 199.104 0 0 1 263.104 64h497.728A199.104 199.104 0 0 1 960 263.104v298.688h-49.728V263.104z" p-id="7019" fill="#ffffff"></path></svg>