<?xml version="1.0" standalone="no"?><!DOCTYPE svg PUBLIC "-//W3C//DTD SVG 1.1//EN" "http://www.w3.org/Graphics/SVG/1.1/DTD/svg11.dtd"><svg t="1781493774741" class="icon" viewBox="0 0 1024 1024" version="1.1" xmlns="http://www.w3.org/2000/svg" p-id="16645" width="32" height="32" xmlns:xlink="http://www.w3.org/1999/xlink"><path d="M917.333333 320h-810.666666a42.666667 42.666667 0 0 1 0-85.333333h85.333333v-85.333334h128v85.333334h384v-85.333334h128v85.333334h85.333333a42.666667 42.666667 0 0 1 0 85.333333z m-794.368 42.666667h777.941334a17.066667 17.066667 0 0 1 16.512 17.578666V857.6a17.066667 17.066667 0 0 1-16.512 17.578667H122.965333A17.066667 17.066667 0 0 1 106.666667 857.6V380.330667a17.066667 17.066667 0 0 1 16.298666-17.664z m495.701334 298.666666h170.666666a42.666667 42.666667 0 0 0 0-85.333333h-170.666666a42.666667 42.666667 0 0 0 0 85.333333z m-426.666667-14.421333a15.744 15.744 0 0 0 16.725333 14.592H277.333333v42.666667a42.666667 42.666667 0 0 0 85.333334 0v-42.666667h68.864a15.786667 15.786667 0 0 0 16.768-14.592v-56.704a15.786667 15.786667 0 0 0-16.768-14.592H362.666667V533.333333a42.666667 42.666667 0 0 0-85.333334 0v42.282667H208.810667a15.744 15.744 0 0 0-16.725334 14.592v56.704z" p-id="16646" fill="#2c2c2c"></path></svg>