<?xml version="1.0" standalone="no"?><!DOCTYPE svg PUBLIC "-//W3C//DTD SVG 1.1//EN" "http://www.w3.org/Graphics/SVG/1.1/DTD/svg11.dtd"><svg t="1781663709614" class="icon" viewBox="0 0 1024 1024" version="1.1" xmlns="http://www.w3.org/2000/svg" p-id="4892" width="32" height="32" xmlns:xlink="http://www.w3.org/1999/xlink"><path d="M701.44 128h-97.28V71.68c0-25.6-20.48-46.08-46.08-46.08H348.16c-25.6 0-46.08 20.48-46.08 46.08v56.32H204.8c-40.96 0-76.8 35.84-76.8 76.8v665.6c0 40.96 35.84 76.8 76.8 76.8h168.96c15.36 0 25.6-10.24 25.6-25.6s-10.24-25.6-25.6-25.6H204.8c-15.36 0-25.6-10.24-25.6-25.6V204.8c0-15.36 10.24-25.6 25.6-25.6h496.64c15.36 0 25.6 10.24 25.6 25.6v230.4c0 15.36 10.24 25.6 25.6 25.6s25.6-10.24 25.6-25.6V204.8c0-40.96-35.84-76.8-76.8-76.8z m-148.48 0H353.28v-51.2h199.68v51.2z" fill="#ffffff" p-id="4893"></path><path d="M389.12 609.28c-5.12 0-15.36 0-15.36-5.12-10.24-10.24-10.24-25.6 0-35.84L460.8 471.04H353.28c-10.24 0-20.48-5.12-25.6-15.36-5.12-10.24 0-20.48 5.12-25.6l138.24-138.24c10.24-10.24 25.6-10.24 35.84 0 10.24 10.24 10.24 25.6 0 35.84L414.72 419.84h107.52c10.24 0 20.48 5.12 25.6 15.36 5.12 10.24 0 20.48-5.12 25.6l-138.24 138.24c-5.12 10.24-10.24 10.24-15.36 10.24zM721.92 998.4c-10.24 0-20.48-5.12-25.6-20.48-5.12-15.36-20.48-25.6-35.84-25.6s-30.72 10.24-35.84 25.6c-5.12 15.36-20.48 20.48-30.72 15.36-40.96-10.24-71.68-35.84-102.4-61.44-10.24-10.24-10.24-25.6 0-35.84 5.12-5.12 10.24-15.36 10.24-25.6 0-20.48-15.36-35.84-35.84-35.84-10.24 0-30.72-5.12-30.72-20.48-5.12-15.36-5.12-30.72-5.12-46.08 0-25.6 5.12-46.08 10.24-71.68 5.12-10.24 15.36-20.48 25.6-20.48 20.48 0 35.84-15.36 35.84-35.84 0-5.12 0-10.24-5.12-15.36-5.12-10.24-5.12-20.48 5.12-30.72 25.6-25.6 61.44-46.08 97.28-56.32 10.24-5.12 25.6 0 30.72 15.36 15.36 25.6 51.2 25.6 66.56 0 5.12-10.24 20.48-15.36 30.72-15.36 35.84 10.24 71.68 30.72 97.28 56.32 10.24 10.24 10.24 20.48 5.12 30.72 0 5.12-5.12 10.24-5.12 15.36 0 20.48 15.36 35.84 35.84 35.84 10.24 0 20.48 5.12 25.6 20.48 5.12 25.6 10.24 46.08 10.24 71.68 0 15.36 0 30.72-5.12 46.08-5.12 15.36-15.36 20.48-25.6 20.48-25.6 0-40.96 15.36-40.96 35.84 0 10.24 5.12 20.48 10.24 25.6 10.24 10.24 10.24 25.6 0 35.84-25.6 30.72-61.44 51.2-102.4 61.44-5.12 5.12-10.24 5.12-10.24 5.12z m-61.44-97.28c30.72 0 56.32 15.36 71.68 35.84 15.36-5.12 30.72-15.36 46.08-30.72-5.12-10.24-10.24-25.6-10.24-35.84 0-46.08 30.72-81.92 71.68-87.04v-20.48c0-15.36 0-25.6-5.12-40.96-40.96-10.24-66.56-46.08-66.56-87.04V614.4c-15.36-10.24-30.72-20.48-46.08-25.6-30.72 35.84-97.28 35.84-133.12 0-15.36 5.12-30.72 15.36-46.08 25.6v20.48c0 40.96-30.72 76.8-66.56 87.04-5.12 15.36-5.12 25.6-5.12 40.96v20.48c40.96 10.24 71.68 46.08 71.68 87.04 0 15.36-5.12 25.6-10.24 35.84l46.08 30.72c25.6-20.48 56.32-35.84 81.92-35.84z" fill="#ffffff" p-id="4894"></path><path d="M660.48 870.4c-56.32 0-97.28-46.08-97.28-102.4s46.08-102.4 97.28-102.4c56.32 0 97.28 46.08 97.28 102.4 5.12 56.32-40.96 102.4-97.28 102.4z m0-148.48c-25.6 0-46.08 20.48-46.08 51.2 0 25.6 20.48 51.2 46.08 51.2s46.08-20.48 46.08-51.2c5.12-30.72-20.48-51.2-46.08-51.2z" fill="#ffffff" p-id="4895"></path></svg>