<?xml version="1.0" standalone="no"?><!DOCTYPE svg PUBLIC "-//W3C//DTD SVG 1.1//EN" "http://www.w3.org/Graphics/SVG/1.1/DTD/svg11.dtd"><svg t="1781231332963" class="icon" viewBox="0 0 1024 1024" version="1.1" xmlns="http://www.w3.org/2000/svg" p-id="10554" width="32" height="32" xmlns:xlink="http://www.w3.org/1999/xlink"><path d="M320.04 931.8c-27.68 0-55.44-7.2-80.84-21.6-52.08-29.48-83.2-82.84-83.2-142.72V256.44c0-59.88 31.12-113.2 83.2-142.72 52.08-29.48 113.84-28.72 165.16 2.08l425.88 255.52c49.84 29.92 79.64 82.48 79.64 140.64 0 58.16-29.76 110.72-79.64 140.64l-425.88 255.52c-26.28 15.76-55.28 23.68-84.32 23.68z m0-767.52c-15.52 0-31.08 4.04-45.36 12.12C245.44 192.96 228 222.88 228 256.44v511.04c0 33.6 17.44 63.52 46.68 80.04 29.24 16.56 63.88 16.12 92.68-1.16l425.88-255.52c27.96-16.8 44.68-46.28 44.68-78.88 0-32.6-16.68-62.12-44.68-78.88L367.36 177.56c-14.72-8.84-31-13.28-47.32-13.28z" p-id="10555" fill="#ffffff"></path></svg>